<svg xmlns="http://www.w3.org/2000/svg" width="64" height="64" viewBox="0 0 64 64">
  <defs>
    <linearGradient id="grad1" x1="0%" y1="0%" x2="100%" y2="100%">
      <stop offset="0%" style="stop-color:#4f46e5;stop-opacity:1" />
      <stop offset="100%" style="stop-color:#7c3aed;stop-opacity:1" />
    </linearGradient>
  </defs>
  
  <!-- Dış çerçeve -->
  <rect width="64" height="64" rx="12" fill="url(#grad1)"/>
  
  <!-- Alışveriş sepeti simgesi -->
  <g transform="translate(12, 12)">
    <!-- Sepet gövdesi -->
    <path d="M8 12 L8 36 C8 38 10 40 12 40 L28 40 C30 40 32 38 32 36 L32 12 Z" 
          fill="white" stroke="none"/>
    
    <!-- Sepet tutamacı -->
    <path d="M12 12 L12 8 C12 6 14 4 16 4 L24 4 C26 4 28 6 28 8 L28 12" 
          fill="none" stroke="white" stroke-width="2" stroke-linecap="round"/>
    
    <!-- Sepet çizgileri -->
    <line x1="8" y1="12" x2="32" y2="12" stroke="white" stroke-width="2"/>
    <circle cx="16" cy="24" r="1.5" fill="#4f46e5"/>
    <circle cx="24" cy="24" r="1.5" fill="#4f46e5"/>
    <circle cx="20" cy="30" r="1.5" fill="#4f46e5"/>
  </g>
  
  <!-- Pazaryeri yazısı için P harfi -->
  <text x="32" y="45" font-family="Arial, sans-serif" font-size="20" font-weight="bold" 
        fill="white" text-anchor="middle">P</text>
</svg>
